{"title":"Battleship.2012.720p.CAM.READNFO.XviD.v5-INSPiRAL","uid":7282808,"size":2634906375,"categoryP":"video","categoryS":"hd___movies","magnet":"?xt=urn:btih:64cec02065501ca08c57ebf4e441b6a0b685a6f9&amp;dn=Battleship.2012.720p.CAM.READNFO.XviD.v5-INSPiRAL&amp;tr=udp%3A%2F%2Ftracker.openbittorrent.com%3A80&amp;tr=udp%3A%2F%2Fopen.demonii.com%3A1337&amp;tr=udp%3A%2F%2Ftracker.coppersurfer.tk%3A6969&amp;tr=udp%3A%2F%2Fexodus.desync.com%3A6969","seeders":0,"leechers":1,"uploader":"maximersk","files":4,"time":1337482071,"description":"Battleship.2012.720p.CAM.READNFO.XviD.v5-INSPiRAL\n\n\n\n\n\nTITLE:\n\nBattleship 2012 720p CAM READNFO XViD v5 - INSPiRAL\n\nIMDB:\n &lt;a href=&quot;\nhttp://www.imdb.com/title/tt1440129/&quot; rel=&quot;nofollow&quot; target=&quot;_NEW&quot;&gt;\nhttp://www.imdb.com/title/tt1440129/&lt;/a&gt;\n\n\nSOURCES:\n\nVIDEO - 720p smy THANKS\nAUDIO - 26k repack THANKS\nSUBS - None Add\n\nSTATS:\n\nVideo\nID : 0\nFormat : MPEG-4 Visual\nFormat profile : Advanced Simple@L5\nFormat settings, BVOP : 2\nFormat settings, QPel : No\nFormat settings, GMC : No warppoints\nFormat settings, Matrix : Default (MPEG)\nMuxing mode : Packed bitstream\nCodec ID : XVID\nCodec ID/Hint : XviD\nDuration : 2h 1mn\nBit rate : 2 725 Kbps\nWidth : 1 280 pixels\nHeight : 576 pixels\nDisplay aspect ratio : 2.222\nFrame rate : 29.970 fps\nColor space : YUV\nChroma subsampling : 4:2:0\nBit depth : 8 bits\nScan type : Progressive\nCompression mode : Lossy\nBits/(Pixel*Frame) : 0.123\nStream size : 2.31 GiB (95%)\nWriting library : XviD 64\n\nAudio\nID : 1\nFormat : MPEG Audio\nFormat version : Version 1\nFormat profile : Layer 3\nCodec ID : 55\nCodec ID/Hint : MP3\nDuration : 2h 1mn\nBit rate mode : Constant\nBit rate : 128 Kbps\nChannel(s) : 2 channels\nSampling rate : 44.1 KHz\nCompression mode : Lossy\nStream size : 111 MiB (4%)\nAlignment : Split accross interleaves\nInterleave, duration : 33 ms (1.00 video frame)\nInterleave, preload duration : 500 ms","torrent":{"xt":"urn:btih:64cec02065501ca08c57ebf4e441b6a0b685a6f9","amp;dn":"Battleship.2012.720p.CAM.READNFO.XviD.v5-INSPiRAL","amp;tr":["udp%3A%2F%2Ftracker.openbittorrent.com%3A80","udp%3A%2F%2Fopen.demonii.com%3A1337","udp%3A%2F%2Ftracker.coppersurfer.tk%3A6969","udp%3A%2F%2Fexodus.desync.com%3A6969"],"infoHash":"64cec02065501ca08c57ebf4e441b6a0b685a6f9","infoHashBuffer":{"type":"Buffer","data":[100,206,192,32,101,80,28,160,140,87,235,244,228,65,182,160,182,133,166,249]},"announce":[],"urlList":[]}}